<?xml version="1.0" encoding="UTF-8"?>
<svg width="64" height="64" viewBox="0 0 64 64" fill="none" xmlns="http://www.w3.org/2000/svg">
    <circle cx="32" cy="32" r="32" fill="#F5F5F5"/>
    <path d="M48 24H40V16C40 14.9 39.1 14 38 14H26C24.9 14 24 14.9 24 16V24H16C14.9 24 14 24.9 14 26V48C14 49.1 14.9 50 16 50H48C49.1 50 50 49.1 50 48V26C50 24.9 49.1 24 48 24ZM28 18H36V24H28V18ZM46 46H18V28H46V46Z" fill="#A18732"/>
    <path d="M32 34C29.791 34 28 35.791 28 38C28 40.209 29.791 42 32 42C34.209 42 36 40.209 36 38C36 35.791 34.209 34 32 34Z" fill="#A18732"/>
</svg> 