<?xml version="1.0" encoding="UTF-8"?>
<svg width="168" height="33" viewBox="0 0 168 33" fill="none" xmlns="http://www.w3.org/2000/svg">
    <path d="M7.56 19.4639C7.56 17.2639 9.36 15.4639 11.56 15.4639C13.76 15.4639 15.56 17.2639 15.56 19.4639C15.56 21.6639 13.76 23.4639 11.56 23.4639C9.36 23.4639 7.56 21.6639 7.56 19.4639Z" fill="#A18732"/>
    <path d="M7.56 9.53906C7.56 7.33906 9.36 5.53906 11.56 5.53906C13.76 5.53906 15.56 7.33906 15.56 9.53906C15.56 11.7391 13.76 13.5391 11.56 13.5391C9.36 13.5391 7.56 11.7391 7.56 9.53906Z" fill="#A18732"/>
    <path d="M0 0C0 2.21 1.79 4 4 4H7.32V33H0V0Z" fill="#A18732"/>
</svg> 