<svg xmlns="http://www.w3.org/2000/svg" viewBox="0 0 24 24" width="24" height="24">
  <circle cx="12" cy="12" r="11" fill="#f7931a"/>
  <path d="M16.5 10.6c.2-1.4-.9-2.1-2.4-2.6l.5-2-1.2-.3-.5 1.9c-.3-.1-.6-.2-.9-.2l.5-1.9-1.2-.3-.5 2c-.2-.1-.5-.1-.7-.2l-1.6-.4-.3 1.3s.9.2.9.2c.5.1.6.4.5.7l-.5 2.1c0 0 .1 0 .1 0-.1 0-.1 0-.1 0l-.7 2.9c-.1.2-.2.4-.5.3 0 0-.9-.2-.9-.2l-.6 1.4 1.5.4c.3.1.6.2.8.2l-.5 2 1.2.3.5-2c.3.1.6.2.9.3l-.5 2 1.2.3.5-2c1.5.3 2.6.2 3.1-1.2.4-1.1 0-1.8-.8-2.2.6-.1 1-.5 1.1-1.4zm-2 3c-.3 1.1-2.1.5-2.7.4l.5-1.9c.6.2 2.5.5 2.2 1.5zm.3-2.9c-.3 1-1.6.5-2.1.4l.4-1.7c.5.1 2 .4 1.7 1.3z" fill="#ffffff"/>
</svg> 