<svg width="168" height="33" viewBox="0 0 168 33" fill="none" xmlns="http://www.w3.org/2000/svg">
<path d="M10.3361 11.7209V16.6764H22.4622V11.7453L25.2459 10.5953V19.4601H7.55176V10.5842L10.3361 11.7209Z" fill="#A18732"/>
<path d="M25.2459 32.6499V23.1697H7.55176V32.6499H10.3361V25.9541H22.4622V32.6499H25.2459Z" fill="#A18732"/>
<path d="M0 32.6685V0.00695038L16.494 6.73753L32.798 0V32.6685H30.0136V4.15361L16.4919 9.74049L2.78439 4.14664V32.6685H0Z" fill="#A18732"/>
<path d="M59.9396 9.64249L53.445 16.8151L46.9504 9.64249H46.7959V23.3292H49.3736V16.0006L53.3483 20.2851H53.523L57.5353 16.0006V23.3292H60.1143V9.64249H59.9396ZM65.271 20.8671V23.3292H74.2855V20.8671H65.271ZM73.5685 15.3226H65.271V17.784H73.5685V15.3226ZM74.1692 9.75804H65.271V12.2403H74.1692V9.75804ZM88.3021 15.3031V20.3046C87.6046 20.8281 86.4797 21.0801 85.1418 20.9053C82.6992 20.5761 81.2068 19.0447 81.2068 16.5631C81.2068 14.0815 82.8733 12.2591 85.0841 12.1819C86.5765 12.0461 87.9722 12.4338 89.0386 13.0346L90.3765 11.1544C89.1353 10.166 87.1584 9.54504 85.0256 9.64249C81.0905 9.8555 78.57 12.667 78.57 16.5631C78.57 20.4598 81.0516 23.0772 84.9288 23.4844C87.3714 23.7364 89.7946 22.7667 90.7837 21.4288V15.3031H88.3021ZM102.086 9.75804H99.4494L94.4863 23.3292H97.414L100.768 13.636L104.122 23.3292H107.049L102.086 9.75804ZM133.841 9.75804H131.205L126.242 23.3292H129.169L132.523 13.636L135.876 23.3292H138.804L133.841 9.75804ZM119.379 9.75804V15.3226H113.912V9.75804H111.333V23.3292H113.912V17.784H119.379V23.3292H121.957V9.75804H119.379ZM148.148 15.1674C146.016 14.5082 145.512 14.101 145.512 13.4613C145.512 12.5696 146.501 12.1819 147.586 12.2013C148.575 12.2208 149.68 12.6858 149.854 13.5385L152.142 12.6858C151.754 10.7472 149.641 9.64249 147.566 9.64249C144.077 9.64249 142.778 11.7746 142.778 13.558C142.778 15.5551 144.058 16.7378 147.179 17.6685C149.39 18.3277 150.048 18.6764 150.048 19.4909C150.048 20.3241 149.195 20.9443 147.625 20.9443C146.21 20.9443 145.027 20.3046 144.775 19.2772L142.41 20.1884C142.798 22.1465 145.202 23.5617 147.857 23.5617C151.231 23.5617 152.801 21.6425 152.801 19.3934C152.801 16.8728 150.824 15.9818 148.148 15.1674ZM165.422 9.75804V15.3226H159.955V9.75804H157.376V23.3292H159.955V17.784H165.422V23.3292H168V9.75804H165.422Z" fill="#F1F1F3"/>
<path d="M71.7875 29.9374H73.9398C74.1765 29.9374 74.3575 29.8832 74.4814 29.776C74.606 29.6688 74.6693 29.5142 74.6693 29.3123C74.6693 29.1007 74.6095 28.942 74.4883 28.8348C74.3672 28.729 74.1848 28.6761 73.9398 28.6761H71.7875V29.9374ZM71.7875 32.142H74.1431C74.3992 32.142 74.6004 32.0668 74.7487 31.9165C74.8956 31.7647 74.9693 31.5587 74.9693 31.2983C74.9693 31.0408 74.8956 30.8354 74.7487 30.6837C74.6004 30.5319 74.3992 30.4554 74.1431 30.4554H71.7875V32.142ZM71.2285 32.6599V28.1589H73.8911C74.3331 28.1589 74.6693 28.2536 74.8956 28.4429C75.1225 28.6316 75.2367 28.91 75.2367 29.2803C75.2367 29.4599 75.2025 29.62 75.1308 29.762C75.0598 29.904 74.9596 30.0182 74.8287 30.1045C75.0682 30.2437 75.2492 30.4136 75.3703 30.6141C75.4928 30.8159 75.5541 31.0449 75.5541 31.3074C75.5541 31.7229 75.4176 32.0515 75.1448 32.2951C74.8705 32.5388 74.5009 32.6599 74.0331 32.6599H71.2285ZM77.6619 32.6599V28.1339H78.2299V32.6599H77.6619ZM81.3407 32.6599V28.6761H79.4453V28.1589H83.7959V28.6761H81.9004V32.6599H81.3407ZM88.6024 31.2232L89.0535 31.5573C88.8474 31.9485 88.5634 32.2506 88.2043 32.4608C87.8465 32.671 87.4392 32.7768 86.9812 32.7768C86.3074 32.7768 85.7505 32.5541 85.3106 32.11C84.8727 31.6659 84.6528 31.102 84.6528 30.4185C84.6528 29.7342 84.8727 29.169 85.312 28.7248C85.7533 28.2814 86.3088 28.0587 86.9798 28.0587C87.3961 28.0587 87.7755 28.1492 88.1179 28.3316C88.4604 28.5132 88.7389 28.7736 88.9533 29.1105L88.4841 29.4446C88.3435 29.1759 88.1388 28.9643 87.8729 28.8126C87.607 28.6608 87.3091 28.5849 86.9812 28.5849C86.4758 28.5849 86.0568 28.759 85.7254 29.1049C85.3941 29.4516 85.2284 29.8901 85.2284 30.4185C85.2284 30.9496 85.3941 31.3874 85.7254 31.7327C86.0568 32.0779 86.4758 32.2506 86.9812 32.2506C87.3341 32.2506 87.6474 32.1629 87.9216 31.9889C88.1959 31.8148 88.4228 31.5601 88.6024 31.2232ZM92.9997 32.2506C93.5043 32.2506 93.9234 32.0779 94.2561 31.7327C94.5875 31.3874 94.7531 30.9496 94.7531 30.4185C94.7531 29.8873 94.5875 29.4474 94.2582 29.1021C93.9276 28.7569 93.5078 28.5849 92.9997 28.5849C92.4943 28.5849 92.0752 28.759 91.7425 29.1049C91.4112 29.4516 91.2455 29.8901 91.2455 30.4185C91.2455 30.9496 91.4112 31.3874 91.7425 31.7327C92.0752 32.0779 92.4943 32.2506 92.9997 32.2506ZM92.9983 32.7768C92.3231 32.7768 91.7662 32.5541 91.3283 32.11C90.8891 31.6659 90.6691 31.102 90.6691 30.4185C90.6691 29.7342 90.8891 29.169 91.3304 28.7248C91.7704 28.2814 92.3258 28.0587 92.9983 28.0587C93.6721 28.0587 94.2297 28.2814 94.6738 28.7276C95.1165 29.1731 95.3379 29.737 95.3379 30.4185C95.3379 31.102 95.1165 31.6659 94.6752 32.11C94.2339 32.5541 93.6749 32.7768 92.9983 32.7768ZM97.3036 32.6599V28.1339H97.8717V32.6599H97.3036ZM100.197 32.6599V28.1589H100.491L103.413 31.5225V28.1589H103.972V32.6599H103.687L100.757 29.2956V32.6599H100.197ZM110.051 32.6599V28.1339H110.619V32.6599H110.051ZM112.516 31.9819L112.842 31.4988C113.161 31.7452 113.492 31.9332 113.836 32.064C114.18 32.1935 114.52 32.2589 114.857 32.2589C115.273 32.2589 115.612 32.1712 115.871 31.9944C116.13 31.8176 116.26 31.5907 116.26 31.3136C116.26 31.0944 116.167 30.9134 115.981 30.7714C115.793 30.6287 115.536 30.5444 115.208 30.5166C115.129 30.5082 115.014 30.4999 114.865 30.4929C114.125 30.44 113.621 30.3537 113.351 30.2312C113.143 30.1296 112.983 30.0001 112.873 29.8414C112.765 29.6813 112.711 29.5031 112.711 29.304C112.711 28.942 112.873 28.6441 113.197 28.4088C113.52 28.1756 113.94 28.0587 114.456 28.0587C114.832 28.0587 115.202 28.1192 115.569 28.2432C115.934 28.3678 116.282 28.5508 116.611 28.7931L116.285 29.2608C116.006 29.0374 115.716 28.8689 115.41 28.7541C115.104 28.6413 114.789 28.5849 114.466 28.5849C114.126 28.5849 113.846 28.6511 113.626 28.784C113.406 28.9156 113.296 29.0812 113.296 29.2803C113.296 29.3583 113.314 29.4307 113.349 29.4961C113.383 29.5616 113.439 29.6242 113.512 29.6813C113.696 29.8191 114.096 29.9082 114.711 29.9458C114.994 29.9625 115.214 29.9792 115.368 29.9987C115.825 30.0502 116.186 30.1964 116.453 30.4386C116.719 30.6809 116.853 30.9767 116.853 31.3303C116.853 31.7508 116.67 32.0974 116.305 32.3689C115.939 32.6404 115.459 32.7768 114.865 32.7768C114.417 32.7768 114 32.7107 113.616 32.5812C113.23 32.4511 112.864 32.252 112.516 31.9819ZM122.659 32.6599V28.1589H126.2V28.6761H123.219V29.9959H125.022V30.5138H123.219V32.142H126.384V32.6599H122.659ZM128.966 30.9231H130.947L129.953 28.9295L128.966 30.9231ZM127.514 32.6599L129.72 28.1589H130.185L132.416 32.6599H131.808L131.197 31.4487H128.709L128.114 32.6599H127.514ZM133.644 31.9819L133.97 31.4988C134.289 31.7452 134.619 31.9332 134.963 32.064C135.307 32.1935 135.648 32.2589 135.985 32.2589C136.401 32.2589 136.74 32.1712 136.999 31.9944C137.258 31.8176 137.388 31.5907 137.388 31.3136C137.388 31.0944 137.295 30.9134 137.108 30.7714C136.921 30.6287 136.664 30.5444 136.336 30.5166C136.257 30.5082 136.142 30.4999 135.993 30.4929C135.253 30.44 134.749 30.3537 134.479 30.2312C134.27 30.1296 134.11 30.0001 134.001 29.8414C133.893 29.6813 133.839 29.5031 133.839 29.304C133.839 28.942 134 28.6441 134.325 28.4088C134.647 28.1756 135.068 28.0587 135.584 28.0587C135.96 28.0587 136.33 28.1192 136.696 28.2432C137.062 28.3678 137.41 28.5508 137.739 28.7931L137.413 29.2608C137.134 29.0374 136.843 28.8689 136.537 28.7541C136.231 28.6413 135.917 28.5849 135.594 28.5849C135.254 28.5849 134.974 28.6511 134.754 28.784C134.533 28.9156 134.423 29.0812 134.423 29.2803C134.423 29.3583 134.441 29.4307 134.476 29.4961C134.511 29.5616 134.566 29.6242 134.639 29.6813C134.824 29.8191 135.224 29.9082 135.839 29.9458C136.122 29.9625 136.341 29.9792 136.496 29.9987C136.953 30.0502 137.314 30.1964 137.581 30.4386C137.847 30.6809 137.981 30.9767 137.981 31.3303C137.981 31.7508 137.798 32.0974 137.432 32.3689C137.067 32.6404 136.587 32.7768 135.993 32.7768C135.545 32.7768 135.127 32.7107 134.743 32.5812C134.358 32.4511 133.992 32.252 133.644 31.9819ZM140.968 32.6599V30.4052L138.939 28.1589H139.642L141.253 29.9361L142.856 28.1589H143.566L141.528 30.4136V32.6599H140.968Z" fill="#F1F1F3"/>
</svg>
